<svg width="25" height="24" viewBox="0 0 25 24" fill="none" xmlns="http://www.w3.org/2000/svg">
<path d="M20.5 12V18C20.5 20.21 18.71 22 16.5 22H8.5C6.29 22 4.5 20.21 4.5 18V12C4.5 11.45 4.95 11 5.5 11H7.47C8.02 11 8.47 11.45 8.47 12V15.14C8.47 15.88 8.88 16.56 9.53 16.91C9.82 17.07 10.14 17.15 10.47 17.15C10.85 17.15 11.23 17.04 11.56 16.82L12.51 16.2L13.39 16.79C14 17.2 14.78 17.25 15.43 16.9C16.09 16.55 16.5 15.88 16.5 15.13V12C16.5 11.45 16.95 11 17.5 11H19.5C20.05 11 20.5 11.45 20.5 12Z" fill="white"/>
<path d="M22 7V8C22 9.1 21.47 10 20 10H5C3.47 10 3 9.1 3 8V7C3 5.9 3.47 5 5 5H20C21.47 5 22 5.9 22 7Z" fill="white"/>
<path d="M12.1398 4.99994H6.61978C6.27978 4.62994 6.28978 4.05994 6.64978 3.69994L8.06978 2.27994C8.43978 1.90994 9.04978 1.90994 9.41978 2.27994L12.1398 4.99994Z" fill="white"/>
<path d="M18.3696 4.99994H12.8496L15.5696 2.27994C15.9396 1.90994 16.5496 1.90994 16.9196 2.27994L18.3396 3.69994C18.6996 4.05994 18.7096 4.62994 18.3696 4.99994Z" fill="white"/>
<path d="M14.4704 11C15.0204 11 15.4704 11.45 15.4704 12V15.13C15.4704 15.93 14.5804 16.41 13.9204 15.96L13.0204 15.36C12.6904 15.14 12.2604 15.14 11.9204 15.36L10.9804 15.98C10.3204 16.42 9.44043 15.94 9.44043 15.15V12C9.44043 11.45 9.89043 11 10.4404 11H14.4704Z" fill="white"/>
</svg>
